<svg width="1436" height="808" viewBox="0 0 1436 808" fill="none" xmlns="http://www.w3.org/2000/svg">
<rect width="1436" height="807.75" fill="white"/>
<path d="M19.15 408.1L199.05 173.6C202.083 169.867 205.933 168 210.6 168H243.85C246.65 168 248.05 169.4 248.05 172.2V408.8C248.05 411.6 246.65 413 243.85 413H210.6C205.933 413 202.083 411.133 199.05 407.4L138.5 328.3L77.6 407.4C74.5667 411.133 70.7167 413 66.05 413H21.6C20.4333 413 19.5 412.533 18.8 411.6C18.1 410.433 18.2167 409.267 19.15 408.1ZM167.55 290.5L203.6 337.4V243.6L167.55 290.5ZM300.331 167.3H336.381C337.548 167.3 338.481 167.767 339.181 168.7C340.115 169.4 340.581 170.333 340.581 171.5V323.05C340.581 329.35 341.631 335.417 343.731 341.25C346.065 346.85 349.098 351.983 352.831 356.65C356.798 361.083 361.465 364.7 366.831 367.5C372.198 370.3 378.031 372.05 384.331 372.75C391.565 373.45 398.331 372.633 404.631 370.3C411.165 367.967 416.765 364.583 421.431 360.15C426.331 355.717 430.181 350.467 432.981 344.4C435.781 338.1 437.181 331.45 437.181 324.45V171.5C437.181 170.333 437.648 169.4 438.581 168.7C439.515 167.767 440.565 167.3 441.731 167.3H477.431C478.598 167.3 479.531 167.767 480.231 168.7C481.165 169.4 481.631 170.333 481.631 171.5V324.45C481.631 337.05 479.181 348.95 474.281 360.15C469.615 371.35 463.198 381.15 455.031 389.55C446.865 397.95 437.181 404.717 425.981 409.85C415.015 414.75 403.231 417.317 390.631 417.55C377.565 417.783 365.315 415.45 353.881 410.55C342.448 405.417 332.415 398.533 323.781 389.9C315.148 381.033 308.381 370.883 303.481 359.45C298.581 347.783 296.131 335.417 296.131 322.35V171.5C296.131 170.333 296.481 169.4 297.181 168.7C298.115 167.767 299.165 167.3 300.331 167.3ZM532.029 172.2C532.029 171.033 532.379 170.1 533.079 169.4C534.012 168.467 535.062 168 536.229 168H614.279C631.079 168 646.829 171.15 661.529 177.45C676.229 183.75 689.062 192.383 700.029 203.35C710.995 214.083 719.745 226.8 726.279 241.5C733.045 255.967 736.545 271.483 736.779 288.05C737.245 305.317 734.095 321.533 727.329 336.7C720.795 351.867 711.812 365.167 700.379 376.6C688.945 387.8 675.529 396.667 660.129 403.2C644.962 409.733 628.745 413 611.479 413H536.229C535.062 413 534.012 412.65 533.079 411.95C532.379 411.017 532.029 409.967 532.029 408.8V172.2ZM576.829 368.55H614.279C625.012 368.55 635.045 366.567 644.379 362.6C653.945 358.4 662.229 352.8 669.229 345.8C676.462 338.567 682.062 330.283 686.029 320.95C690.229 311.383 692.329 301.233 692.329 290.5C692.329 279.767 690.229 269.733 686.029 260.4C682.062 250.833 676.462 242.55 669.229 235.55C662.229 228.317 653.945 222.717 644.379 218.75C635.045 214.55 625.012 212.45 614.279 212.45H576.829V368.55ZM781.639 168H817.689C820.722 168 822.239 169.4 822.239 172.2V408.8C822.239 411.6 820.722 413 817.689 413H781.639C780.472 413 779.422 412.65 778.489 411.95C777.789 411.017 777.439 409.967 777.439 408.8V172.2C777.439 171.033 777.789 170.1 778.489 169.4C779.422 168.467 780.472 168 781.639 168ZM948.496 408.1L1128.4 173.6C1131.43 169.867 1135.28 168 1139.95 168H1173.2C1176 168 1177.4 169.4 1177.4 172.2V408.8C1177.4 411.6 1176 413 1173.2 413H1139.95C1135.28 413 1131.43 411.133 1128.4 407.4L1067.85 328.3L1006.95 407.4C1003.91 411.133 1000.06 413 995.396 413H950.946C949.779 413 948.846 412.533 948.146 411.6C947.446 410.433 947.562 409.267 948.496 408.1ZM1096.9 290.5L1132.95 337.4V243.6L1096.9 290.5ZM1227.93 172.55C1227.93 171.383 1228.28 170.333 1228.98 169.4C1229.91 168.467 1230.96 168 1232.13 168H1379.83C1380.99 168 1381.93 168.467 1382.63 169.4C1383.56 170.333 1384.03 171.383 1384.03 172.55V208.25C1384.03 209.417 1383.56 210.467 1382.63 211.4C1381.93 212.1 1380.99 212.45 1379.83 212.45H1272.73V254.1H1379.83C1380.99 254.1 1381.93 254.567 1382.63 255.5C1383.56 256.2 1384.03 257.133 1384.03 258.3V309.75C1384.03 313.017 1382.98 315.933 1380.88 318.5L1312.63 407.4C1309.83 411.367 1305.98 413.35 1301.08 413.35H1256.63C1255.46 413.35 1254.53 412.767 1253.83 411.6C1253.13 410.433 1253.24 409.267 1254.18 408.1L1338.18 298.55H1232.13C1230.96 298.55 1229.91 298.2 1228.98 297.5C1228.28 296.567 1227.93 295.517 1227.93 294.35V172.55Z" fill="#DFDFDF"/>
</svg>
