<svg width="114" height="20" viewBox="0 0 114 20" fill="none" xmlns="http://www.w3.org/2000/svg">
<path d="M0.661867 9.81209C0.661867 8.52235 0.896365 7.32474 1.36536 6.21924C1.85111 5.11375 2.49598 4.15063 3.29997 3.32989C4.12072 2.50915 5.08383 1.87265 6.18933 1.4204C7.29482 0.951407 8.48406 0.725284 9.75705 0.742033C11.1138 0.758783 12.3617 1.03516 13.5006 1.57115C14.6564 2.10715 15.653 2.84414 16.4905 3.78214C16.5408 3.84914 16.5575 3.92451 16.5408 4.00826C16.5408 4.09201 16.5073 4.15901 16.4403 4.20926L14.4554 5.89262C14.3884 5.94287 14.313 5.96799 14.2293 5.96799C14.1455 5.95125 14.0785 5.90937 14.0283 5.84237C13.4755 5.20588 12.8223 4.70338 12.0685 4.33488C11.3148 3.94963 10.5024 3.76539 9.63143 3.78214C8.84418 3.79889 8.09881 3.97476 7.39532 4.30976C6.69182 4.62801 6.08045 5.07188 5.56121 5.64137C5.04196 6.19412 4.63159 6.83899 4.33009 7.57598C4.02859 8.31298 3.87784 9.10022 3.87784 9.93772C3.87784 10.7752 4.03697 11.5625 4.35521 12.2994C4.67346 13.0364 5.10058 13.6813 5.63658 14.2341C6.17258 14.7868 6.79232 15.2223 7.49582 15.5406C8.19931 15.842 8.95306 15.9928 9.75705 15.9928C10.5945 15.976 11.3818 15.7834 12.1188 15.4149C12.8558 15.0464 13.4923 14.5439 14.0283 13.9074C14.0785 13.8404 14.1455 13.8069 14.2293 13.8069C14.313 13.7902 14.3884 13.8153 14.4554 13.8823L16.4403 15.5657C16.5073 15.6159 16.5408 15.6829 16.5408 15.7667C16.5575 15.8504 16.5408 15.9258 16.4905 15.9928C15.6363 16.9475 14.6229 17.7013 13.4504 18.254C12.2779 18.79 10.9965 19.0496 9.6063 19.0329C8.35006 19.0329 7.16919 18.7984 6.0637 18.3294C4.97496 17.8437 4.02859 17.1904 3.2246 16.3697C2.4206 15.5322 1.79248 14.5523 1.34024 13.4301C0.88799 12.3078 0.661867 11.1018 0.661867 9.81209ZM19.3747 18.3797V1.39528C19.3747 1.31153 19.3999 1.24453 19.4501 1.19428C19.5171 1.12728 19.5925 1.09378 19.6762 1.09378H22.0631C22.3981 1.09378 22.6745 1.22778 22.8922 1.49578L35.8315 18.3294C35.8818 18.4132 35.8818 18.4969 35.8315 18.5807C35.798 18.6477 35.731 18.6812 35.6305 18.6812H32.4397C32.1047 18.6812 31.8283 18.5472 31.6105 18.2792L27.2639 12.6009L22.8922 18.2792C22.6745 18.5472 22.3981 18.6812 22.0631 18.6812H19.6762C19.5925 18.6812 19.5171 18.656 19.4501 18.6058C19.3999 18.5388 19.3747 18.4634 19.3747 18.3797ZM22.5907 6.52074V13.2542L25.1786 9.88747L22.5907 6.52074ZM37.8258 1.34503C37.8258 1.26128 37.8509 1.19428 37.9012 1.14403C37.9682 1.07703 38.0435 1.04353 38.1273 1.04353H51.3932C51.4769 1.04353 51.5439 1.07703 51.5942 1.14403C51.6612 1.19428 51.6947 1.26128 51.6947 1.34503V5.03838C51.6947 5.27287 51.6193 5.48225 51.4686 5.6665L47.4988 10.8673L53.1771 18.2792C53.2273 18.3629 53.2273 18.4467 53.1771 18.5304C53.1436 18.5974 53.0849 18.6309 53.0012 18.6309H49.8103C49.4753 18.6309 49.199 18.4969 48.9812 18.2289L43.4789 11.0683C43.3616 10.9343 43.3616 10.8087 43.4789 10.6915L48.4285 4.23438H41.0418V18.3294C41.0418 18.5304 40.9329 18.6309 40.7151 18.6309H38.1273C38.0435 18.6309 37.9682 18.6058 37.9012 18.5555C37.8509 18.4885 37.8258 18.4132 37.8258 18.3294V1.34503ZM55.2463 1.39528C55.2463 1.31153 55.2714 1.24453 55.3217 1.19428C55.3887 1.12728 55.4641 1.09378 55.5478 1.09378H66.4017C66.6027 1.09378 66.7032 1.19428 66.7032 1.39528V3.98313C66.7032 4.18413 66.6027 4.28463 66.4017 4.28463H58.4623V8.3046H64.7435C64.9445 8.3046 65.045 8.4051 65.045 8.6061V11.1688C65.045 11.3866 64.9445 11.4955 64.7435 11.4955H58.4623V15.4903H67.1806C67.2811 15.4903 67.3481 15.5322 67.3816 15.6159C67.4318 15.6997 67.4235 15.775 67.3565 15.842L65.4972 18.2792C65.2795 18.5472 65.0031 18.6812 64.6681 18.6812H55.5478C55.4641 18.6812 55.3887 18.656 55.3217 18.6058C55.2714 18.5388 55.2463 18.4634 55.2463 18.3797V1.39528ZM69.7961 1.39528C69.7961 1.31153 69.8213 1.24453 69.8715 1.19428C69.9385 1.12728 70.0139 1.09378 70.0976 1.09378H80.9516C81.1525 1.09378 81.253 1.19428 81.253 1.39528V3.98313C81.253 4.18413 81.1525 4.28463 80.9516 4.28463H73.0121V8.3046H79.2933C79.4943 8.3046 79.5948 8.4051 79.5948 8.6061V11.1688C79.5948 11.3866 79.4943 11.4955 79.2933 11.4955H73.0121V15.4903H81.7304C81.8309 15.4903 81.8979 15.5322 81.9314 15.6159C81.9817 15.6997 81.9733 15.775 81.9063 15.842L80.0471 18.2792C79.8293 18.5472 79.5529 18.6812 79.2179 18.6812H70.0976C70.0139 18.6812 69.9385 18.656 69.8715 18.6058C69.8213 18.5388 69.7961 18.4634 69.7961 18.3797V1.39528ZM84.346 1.34503C84.346 1.26128 84.3711 1.19428 84.4213 1.14403C84.4883 1.07703 84.5637 1.04353 84.6475 1.04353H97.9134C97.9971 1.04353 98.0641 1.07703 98.1144 1.14403C98.1814 1.19428 98.2149 1.26128 98.2149 1.34503V5.03838C98.2149 5.27287 98.1395 5.48225 97.9887 5.6665L94.019 10.8673L99.6972 18.2792C99.7475 18.3629 99.7475 18.4467 99.6972 18.5304C99.6637 18.5974 99.6051 18.6309 99.5213 18.6309H96.3305C95.9955 18.6309 95.7191 18.4969 95.5014 18.2289L89.999 11.0683C89.8818 10.9343 89.8818 10.8087 89.999 10.6915L94.9486 4.23438H87.5619V18.3294C87.5619 18.5304 87.4531 18.6309 87.2353 18.6309H84.6475C84.5637 18.6309 84.4883 18.6058 84.4213 18.5555C84.3711 18.4885 84.346 18.4132 84.346 18.3294V1.34503ZM101.289 6.24437C101.289 5.45712 101.448 4.7285 101.766 4.05851C102.101 3.38851 102.545 2.81064 103.098 2.3249C103.668 1.83915 104.321 1.4539 105.058 1.16916C105.812 0.884407 106.607 0.742033 107.445 0.742033C108.751 0.742033 109.882 0.976532 110.837 1.44553C111.808 1.89777 112.537 2.4254 113.022 3.02839C113.14 3.17914 113.131 3.31314 112.997 3.43039L111.264 5.23938C111.197 5.30638 111.113 5.33988 111.012 5.33988C110.929 5.33988 110.853 5.298 110.786 5.21425C110.636 5.04675 110.443 4.87925 110.208 4.71175C109.991 4.54426 109.731 4.39351 109.43 4.25951C109.145 4.10876 108.835 3.99151 108.5 3.90776C108.165 3.82401 107.822 3.78214 107.47 3.78214C107.051 3.78214 106.666 3.84914 106.314 3.98313C105.979 4.10038 105.694 4.25951 105.46 4.46051C105.225 4.6615 105.041 4.896 104.907 5.164C104.773 5.432 104.706 5.71675 104.706 6.01825C104.706 6.50399 104.865 6.92274 105.183 7.27449C105.502 7.62623 105.979 7.86911 106.616 8.00311L109.078 8.48048C109.882 8.63123 110.585 8.8741 111.188 9.2091C111.808 9.52734 112.319 9.91259 112.721 10.3648C113.14 10.8171 113.458 11.328 113.676 11.8975C113.893 12.4502 114.002 13.0364 114.002 13.6562C114.002 14.3262 113.86 14.9878 113.575 15.641C113.307 16.2943 112.897 16.8805 112.344 17.3998C111.808 17.919 111.146 18.3378 110.359 18.656C109.572 18.9575 108.667 19.1083 107.646 19.1083C106.925 19.1083 106.247 19.0329 105.611 18.8822C104.991 18.7314 104.421 18.5388 103.902 18.3043C103.4 18.053 102.956 17.785 102.57 17.5003C102.185 17.1988 101.867 16.9057 101.616 16.6209C101.498 16.5037 101.498 16.3697 101.616 16.2189L103.199 14.1838C103.249 14.1001 103.316 14.0582 103.4 14.0582C103.5 14.0414 103.584 14.0666 103.651 14.1336C103.885 14.3513 104.145 14.5774 104.43 14.8119C104.714 15.0297 105.024 15.2307 105.359 15.4149C105.694 15.5992 106.054 15.7499 106.44 15.8672C106.825 15.9844 107.235 16.043 107.671 16.043C108.592 16.043 109.296 15.842 109.781 15.4401C110.267 15.0381 110.51 14.5188 110.51 13.8823C110.51 13.3798 110.326 12.9443 109.957 12.5758C109.605 12.1906 109.078 11.931 108.374 11.797L105.912 11.2945C104.505 11.0097 103.383 10.4318 102.545 9.56084C101.708 8.68985 101.289 7.58436 101.289 6.24437Z" fill="white"/>
</svg>
