<svg width="138" height="19" viewBox="0 0 138 19" fill="none" xmlns="http://www.w3.org/2000/svg">
<path d="M0.130617 9.13094C0.130617 7.8412 0.365115 6.64358 0.834112 5.53809C1.31986 4.4326 1.96473 3.46948 2.76872 2.64874C3.58947 1.82799 4.55258 1.1915 5.65808 0.739251C6.76357 0.270255 7.95281 0.0441313 9.2258 0.0608809C10.5825 0.0776306 11.8304 0.354003 12.9694 0.89C14.1251 1.426 15.1218 2.16299 15.9593 3.10098C16.0095 3.16798 16.0263 3.24336 16.0095 3.32711C16.0095 3.41086 15.976 3.47786 15.909 3.52811L13.9241 5.21147C13.8571 5.26172 13.7818 5.28684 13.698 5.28684C13.6143 5.27009 13.5473 5.22822 13.497 5.16122C12.9443 4.52472 12.291 4.02223 11.5373 3.65373C10.7835 3.26848 9.97117 3.08423 9.10018 3.10098C8.31293 3.11773 7.56756 3.29361 6.86407 3.62861C6.16057 3.94685 5.5492 4.39072 5.02996 4.96022C4.51071 5.51297 4.10034 6.15784 3.79884 6.89483C3.49734 7.63183 3.34659 8.41907 3.34659 9.25656C3.34659 10.0941 3.50572 10.8813 3.82396 11.6183C4.14221 12.3553 4.56933 13.0002 5.10533 13.5529C5.64133 14.1057 6.26107 14.5412 6.96457 14.8594C7.66806 15.1609 8.42181 15.3116 9.2258 15.3116C10.0633 15.2949 10.8505 15.1023 11.5875 14.7338C12.3245 14.3653 12.961 13.8628 13.497 13.2263C13.5473 13.1593 13.6143 13.1258 13.698 13.1258C13.7818 13.109 13.8571 13.1342 13.9241 13.2012L15.909 14.8845C15.976 14.9348 16.0095 15.0018 16.0095 15.0855C16.0263 15.1693 16.0095 15.2446 15.9593 15.3116C15.105 16.2664 14.0916 17.0201 12.9191 17.5729C11.7467 18.1089 10.4653 18.3685 9.07505 18.3517C7.81881 18.3517 6.63794 18.1172 5.53245 17.6483C4.44371 17.1625 3.49734 16.5093 2.69335 15.6885C1.88935 14.851 1.26123 13.8712 0.808987 12.7489C0.35674 11.6267 0.130617 10.4207 0.130617 9.13094ZM18.14 9.13094C18.14 7.8412 18.3745 6.64358 18.8435 5.53809C19.3292 4.41585 19.9741 3.45273 20.7781 2.64874C21.5989 1.82799 22.562 1.1915 23.6675 0.739251C24.773 0.270255 25.9622 0.0441313 27.2352 0.0608809C28.5082 0.0776306 29.6974 0.328879 30.8029 0.814626C31.9084 1.30037 32.8631 1.96199 33.6671 2.79949C34.4879 3.63698 35.1328 4.61685 35.6018 5.73909C36.0707 6.84458 36.2969 8.02545 36.2801 9.28169C36.2634 10.5547 36.0121 11.7439 35.5264 12.8494C35.0406 13.9549 34.379 14.918 33.5415 15.7388C32.7208 16.5595 31.7577 17.2044 30.6522 17.6734C29.5467 18.1256 28.3574 18.3517 27.0844 18.3517C25.8282 18.3517 24.6473 18.1172 23.5418 17.6483C22.4531 17.1625 21.5067 16.5093 20.7027 15.6885C19.8987 14.851 19.2706 13.8712 18.8184 12.7489C18.3661 11.6267 18.14 10.4207 18.14 9.13094ZM21.356 9.25656C21.356 10.0773 21.5151 10.8562 21.8334 11.5932C22.1516 12.3302 22.5787 12.975 23.1147 13.5278C23.6507 14.0805 24.2705 14.516 24.974 14.8343C25.6774 15.1525 26.4312 15.3116 27.2352 15.3116C28.0224 15.2949 28.7678 15.119 29.4713 14.784C30.1748 14.449 30.7862 14.0052 31.3054 13.4524C31.8414 12.8829 32.2602 12.2297 32.5616 11.4927C32.8631 10.7389 33.0055 9.95168 32.9888 9.13094C32.9888 8.3102 32.8296 7.53133 32.5114 6.79433C32.1932 6.05734 31.766 5.42084 31.23 4.88485C30.694 4.3321 30.0659 3.8966 29.3457 3.57836C28.6422 3.26011 27.8968 3.10098 27.1096 3.10098C26.3223 3.11773 25.577 3.29361 24.8735 3.62861C24.17 3.94685 23.5586 4.39072 23.0393 4.96022C22.5201 5.51297 22.1097 6.15784 21.8082 6.89483C21.5067 7.63183 21.356 8.41907 21.356 9.25656ZM39.4608 0.412628H41.8476C42.1826 0.412628 42.459 0.546628 42.6767 0.814626L51.7217 12.573V0.714127C51.7217 0.513128 51.8222 0.412628 52.0232 0.412628H54.41C54.745 0.412628 55.0214 0.546628 55.2392 0.814626L68.1533 17.6483C68.2203 17.732 68.2287 17.8158 68.1784 17.8995C68.1449 17.9665 68.0779 18 67.9774 18H64.7866C64.4516 18 64.1752 17.866 63.9575 17.598L54.9125 5.83959V17.6985C54.9125 17.8995 54.812 18 54.611 18H52.2242C51.8892 18 51.6128 17.866 51.3951 17.598L42.3752 5.83959V17.6985C42.3752 17.8995 42.2664 18 42.0486 18H39.4608C39.377 18 39.3016 17.9749 39.2346 17.9246C39.1844 17.8576 39.1593 17.7823 39.1593 17.6985V0.714127C39.1593 0.630377 39.1844 0.563378 39.2346 0.513128C39.3016 0.446128 39.377 0.412628 39.4608 0.412628ZM70.1727 17.6483V0.663876C70.1727 0.580127 70.1978 0.513128 70.2481 0.462879C70.3151 0.395879 70.3905 0.362379 70.4742 0.362379H83.7401C83.8239 0.362379 83.8909 0.395879 83.9411 0.462879C84.0081 0.513128 84.0416 0.580127 84.0416 0.663876V4.35722C84.0416 4.59172 83.9662 4.8011 83.8155 4.98535L80.1473 9.78418C79.9295 10.0522 79.6531 10.1862 79.3181 10.1862H76.1273C76.0268 10.1862 75.9514 10.1527 75.9012 10.0857C75.8677 10.0019 75.8844 9.91818 75.9514 9.83443L80.7754 3.55323H73.3887V17.6483C73.3887 17.8493 73.2798 17.9498 73.0621 17.9498H70.4742C70.3905 17.9498 70.3151 17.9246 70.2481 17.8744C70.1978 17.8074 70.1727 17.732 70.1727 17.6483ZM86.9624 0.412628H89.3492C89.6842 0.412628 89.9606 0.546628 90.1783 0.814626L103.093 17.6483C103.159 17.7153 103.168 17.7906 103.118 17.8744C103.084 17.9581 103.017 18 102.917 18H99.7258C99.3908 18 99.1144 17.866 98.8967 17.598L94.5501 11.9198L90.1783 17.598C89.9606 17.866 89.6842 18 89.3492 18H86.9624C86.8786 18 86.8032 17.9749 86.7362 17.9246C86.686 17.8576 86.6609 17.7823 86.6609 17.6985V0.714127C86.6609 0.630377 86.686 0.563378 86.7362 0.513128C86.8032 0.446128 86.8786 0.412628 86.9624 0.412628ZM100.53 0.714127C100.53 0.513128 100.639 0.412628 100.856 0.412628H103.243C103.561 0.412628 103.829 0.546628 104.047 0.814626L113.092 12.573V0.714127C113.092 0.513128 113.193 0.412628 113.394 0.412628H115.982C116.199 0.412628 116.308 0.513128 116.308 0.714127V17.6985C116.308 17.7823 116.275 17.8576 116.208 17.9246C116.141 17.9749 116.065 18 115.982 18H113.595C113.26 18 112.983 17.866 112.766 17.598L103.746 5.83959V12.7238C103.746 12.8243 103.695 12.8913 103.595 12.9248C103.494 12.9583 103.411 12.9332 103.344 12.8494L100.756 9.48269C100.605 9.29844 100.53 9.08907 100.53 8.85457V0.714127ZM89.8768 5.83959V12.573L92.4647 9.20631L89.8768 5.83959ZM118.524 0.362379H121.715C122.05 0.362379 122.326 0.496378 122.544 0.764376L127.695 7.4727L132.845 0.764376C133.063 0.496378 133.339 0.362379 133.674 0.362379H136.865C136.966 0.362379 137.033 0.404254 137.066 0.488003C137.116 0.571753 137.108 0.647127 137.041 0.714127L124.127 17.5478C123.909 17.8158 123.633 17.9498 123.298 17.9498H120.107C120.023 17.9498 119.956 17.9163 119.906 17.8493C119.856 17.7655 119.864 17.6818 119.931 17.598L125.609 10.1862L118.348 0.714127C118.281 0.647127 118.273 0.571753 118.323 0.488003C118.373 0.404254 118.44 0.362379 118.524 0.362379Z" fill="white"/>
</svg>
