<svg width="160" height="19" viewBox="0 0 160 19" fill="none" xmlns="http://www.w3.org/2000/svg">
<path d="M0.130617 9.13094C0.130617 7.8412 0.365115 6.64358 0.834112 5.53809C1.31986 4.4326 1.96473 3.46948 2.76872 2.64874C3.58947 1.82799 4.55258 1.1915 5.65808 0.739251C6.76357 0.270255 7.95281 0.0441313 9.2258 0.0608809C10.5825 0.0776306 11.8304 0.354003 12.9694 0.89C14.1251 1.426 15.1218 2.16299 15.9593 3.10098C16.0095 3.16798 16.0263 3.24336 16.0095 3.32711C16.0095 3.41086 15.976 3.47786 15.909 3.52811L13.9241 5.21147C13.8571 5.26172 13.7818 5.28684 13.698 5.28684C13.6143 5.27009 13.5473 5.22822 13.497 5.16122C12.9443 4.52472 12.291 4.02223 11.5373 3.65373C10.7835 3.26848 9.97117 3.08423 9.10018 3.10098C8.31293 3.11773 7.56756 3.29361 6.86407 3.62861C6.16057 3.94685 5.5492 4.39072 5.02996 4.96022C4.51071 5.51297 4.10034 6.15784 3.79884 6.89483C3.49734 7.63183 3.34659 8.41907 3.34659 9.25656C3.34659 10.0941 3.50572 10.8813 3.82396 11.6183C4.14221 12.3553 4.56933 13.0002 5.10533 13.5529C5.64133 14.1057 6.26107 14.5412 6.96457 14.8594C7.66806 15.1609 8.42181 15.3116 9.2258 15.3116C10.0633 15.2949 10.8505 15.1023 11.5875 14.7338C12.3245 14.3653 12.961 13.8628 13.497 13.2263C13.5473 13.1593 13.6143 13.1258 13.698 13.1258C13.7818 13.109 13.8571 13.1342 13.9241 13.2012L15.909 14.8845C15.976 14.9348 16.0095 15.0018 16.0095 15.0855C16.0263 15.1693 16.0095 15.2446 15.9593 15.3116C15.105 16.2664 14.0916 17.0201 12.9191 17.5729C11.7467 18.1089 10.4653 18.3685 9.07505 18.3517C7.81881 18.3517 6.63794 18.1172 5.53245 17.6483C4.44371 17.1625 3.49734 16.5093 2.69335 15.6885C1.88935 14.851 1.26123 13.8712 0.808987 12.7489C0.35674 11.6267 0.130617 10.4207 0.130617 9.13094ZM18.14 9.13094C18.14 7.8412 18.3745 6.64358 18.8435 5.53809C19.3292 4.41585 19.9741 3.45273 20.7781 2.64874C21.5989 1.82799 22.562 1.1915 23.6675 0.739251C24.773 0.270255 25.9622 0.0441313 27.2352 0.0608809C28.5082 0.0776306 29.6974 0.328879 30.8029 0.814626C31.9084 1.30037 32.8631 1.96199 33.6671 2.79949C34.4879 3.63698 35.1328 4.61685 35.6018 5.73909C36.0707 6.84458 36.2969 8.02545 36.2801 9.28169C36.2634 10.5547 36.0121 11.7439 35.5264 12.8494C35.0406 13.9549 34.379 14.918 33.5415 15.7388C32.7208 16.5595 31.7577 17.2044 30.6522 17.6734C29.5467 18.1256 28.3574 18.3517 27.0844 18.3517C25.8282 18.3517 24.6473 18.1172 23.5418 17.6483C22.4531 17.1625 21.5067 16.5093 20.7027 15.6885C19.8987 14.851 19.2706 13.8712 18.8184 12.7489C18.3661 11.6267 18.14 10.4207 18.14 9.13094ZM21.356 9.25656C21.356 10.0773 21.5151 10.8562 21.8334 11.5932C22.1516 12.3302 22.5787 12.975 23.1147 13.5278C23.6507 14.0805 24.2705 14.516 24.974 14.8343C25.6774 15.1525 26.4312 15.3116 27.2352 15.3116C28.0224 15.2949 28.7678 15.119 29.4713 14.784C30.1748 14.449 30.7862 14.0052 31.3054 13.4524C31.8414 12.8829 32.2602 12.2297 32.5616 11.4927C32.8631 10.7389 33.0055 9.95168 32.9888 9.13094C32.9888 8.3102 32.8296 7.53133 32.5114 6.79433C32.1932 6.05734 31.766 5.42084 31.23 4.88485C30.694 4.3321 30.0659 3.8966 29.3457 3.57836C28.6422 3.26011 27.8968 3.10098 27.1096 3.10098C26.3223 3.11773 25.577 3.29361 24.8735 3.62861C24.17 3.94685 23.5586 4.39072 23.0393 4.96022C22.5201 5.51297 22.1097 6.15784 21.8082 6.89483C21.5067 7.63183 21.356 8.41907 21.356 9.25656ZM39.1593 17.6985V0.714127C39.1593 0.630377 39.1844 0.563378 39.2346 0.513128C39.3016 0.446128 39.377 0.412628 39.4608 0.412628H41.8476C42.1826 0.412628 42.459 0.546628 42.6767 0.814626L51.7217 12.573V0.714127C51.7217 0.513128 51.8222 0.412628 52.0232 0.412628H54.611C54.812 0.412628 54.9125 0.513128 54.9125 0.714127V17.6985C54.9125 17.8995 54.812 18 54.611 18H52.2242C51.8892 18 51.6128 17.866 51.3951 17.598L42.3752 5.83959V17.6985C42.3752 17.8995 42.2664 18 42.0486 18H39.4608C39.377 18 39.3016 17.9749 39.2346 17.9246C39.1844 17.8576 39.1593 17.7823 39.1593 17.6985ZM57.6633 0.663876C57.6633 0.580127 57.6884 0.513128 57.7387 0.462879C57.8057 0.395879 57.881 0.362379 57.9648 0.362379H68.869C69.204 0.362379 69.4803 0.496378 69.6981 0.764376L71.5573 3.20148C71.6243 3.28523 71.6327 3.36898 71.5824 3.45273C71.5489 3.51973 71.4819 3.55323 71.3815 3.55323H65.7786V17.6483C65.7786 17.8493 65.6781 17.9498 65.4771 17.9498H62.8893C62.6883 17.9498 62.5878 17.8493 62.5878 17.6483V3.55323H57.9648C57.881 3.55323 57.8057 3.52811 57.7387 3.47786C57.6884 3.41086 57.6633 3.33548 57.6633 3.25173V0.663876ZM73.5587 17.6985V0.714127C73.5587 0.630377 73.5838 0.563378 73.634 0.513128C73.701 0.446128 73.7764 0.412628 73.8602 0.412628H76.247C76.582 0.412628 76.8584 0.546628 77.0761 0.814626L90.0154 17.6483C90.0657 17.732 90.0657 17.8158 90.0154 17.8995C89.9819 17.9665 89.9149 18 89.8144 18H86.6236C86.2886 18 86.0122 17.866 85.7945 17.598L81.4479 11.9198L77.0761 17.598C76.8584 17.866 76.582 18 76.247 18H73.8602C73.7764 18 73.701 17.9749 73.634 17.9246C73.5838 17.8576 73.5587 17.7823 73.5587 17.6985ZM76.7747 5.83959V12.573L79.3625 9.20631L76.7747 5.83959ZM90.0058 9.13094C90.0058 7.8412 90.2403 6.64358 90.7093 5.53809C91.195 4.4326 91.8399 3.46948 92.6439 2.64874C93.4647 1.82799 94.4278 1.1915 95.5333 0.739251C96.6388 0.270255 97.828 0.0441313 99.101 0.0608809C100.458 0.0776306 101.706 0.354003 102.845 0.89C104 1.426 104.997 2.16299 105.834 3.10098C105.885 3.16798 105.901 3.24336 105.885 3.32711C105.885 3.41086 105.851 3.47786 105.784 3.52811L103.799 5.21147C103.732 5.26172 103.657 5.28684 103.573 5.28684C103.489 5.27009 103.422 5.22822 103.372 5.16122C102.819 4.52472 102.166 4.02223 101.412 3.65373C100.659 3.26848 99.8464 3.08423 98.9754 3.10098C98.1881 3.11773 97.4428 3.29361 96.7393 3.62861C96.0358 3.94685 95.4244 4.39072 94.9051 4.96022C94.3859 5.51297 93.9755 6.15784 93.674 6.89483C93.3725 7.63183 93.2218 8.41907 93.2218 9.25656C93.2218 10.0941 93.3809 10.8813 93.6992 11.6183C94.0174 12.3553 94.4445 13.0002 94.9805 13.5529C95.5165 14.1057 96.1363 14.5412 96.8398 14.8594C97.5433 15.1609 98.297 15.3116 99.101 15.3116C99.9385 15.2949 100.726 15.1023 101.463 14.7338C102.2 14.3653 102.836 13.8628 103.372 13.2263C103.422 13.1593 103.489 13.1258 103.573 13.1258C103.657 13.109 103.732 13.1342 103.799 13.2012L105.784 14.8845C105.851 14.9348 105.885 15.0018 105.885 15.0855C105.901 15.1693 105.885 15.2446 105.834 15.3116C104.98 16.2664 103.967 17.0201 102.794 17.5729C101.622 18.1089 100.34 18.3685 98.9502 18.3517C97.694 18.3517 96.5131 18.1172 95.4076 17.6483C94.3189 17.1625 93.3725 16.5093 92.5685 15.6885C91.7645 14.851 91.1364 13.8712 90.6842 12.7489C90.2319 11.6267 90.0058 10.4207 90.0058 9.13094ZM107.839 0.663876C107.839 0.580127 107.864 0.513128 107.915 0.462879C107.982 0.395879 108.057 0.362379 108.141 0.362379H119.045C119.38 0.362379 119.656 0.496378 119.874 0.764376L121.733 3.20148C121.8 3.28523 121.809 3.36898 121.758 3.45273C121.725 3.51973 121.658 3.55323 121.557 3.55323H115.955V17.6483C115.955 17.8493 115.854 17.9498 115.653 17.9498H113.065C112.864 17.9498 112.764 17.8493 112.764 17.6483V3.55323H108.141C108.057 3.55323 107.982 3.52811 107.915 3.47786C107.864 3.41086 107.839 3.33548 107.839 3.25173V0.663876ZM131.078 0.362379H133.666C133.75 0.362379 133.817 0.395879 133.867 0.462879C133.934 0.513128 133.967 0.580127 133.967 0.663876V11.5429C133.967 11.9952 134.043 12.4307 134.193 12.8494C134.361 13.2514 134.579 13.6199 134.847 13.9549C135.131 14.2732 135.466 14.5328 135.852 14.7338C136.237 14.9348 136.656 15.0604 137.108 15.1106C137.627 15.1609 138.113 15.1023 138.565 14.9348C139.034 14.7673 139.436 14.5244 139.771 14.2062C140.123 13.8879 140.399 13.511 140.6 13.0755C140.801 12.6233 140.902 12.1459 140.902 11.6434V0.663876C140.902 0.580127 140.935 0.513128 141.002 0.462879C141.069 0.395879 141.145 0.362379 141.228 0.362379H143.791C143.875 0.362379 143.942 0.395879 143.992 0.462879C144.059 0.513128 144.093 0.580127 144.093 0.663876V11.6434C144.093 12.5479 143.917 13.4022 143.565 14.2062C143.23 15.0101 142.769 15.7136 142.183 16.3166C141.597 16.9196 140.902 17.4054 140.098 17.7739C139.311 18.1256 138.465 18.3099 137.56 18.3266C136.622 18.3434 135.743 18.1759 134.922 17.8241C134.101 17.4556 133.381 16.9615 132.761 16.3418C132.142 15.7053 131.656 14.9766 131.304 14.1559C130.952 13.3184 130.777 12.4307 130.777 11.4927V0.663876C130.777 0.580127 130.802 0.513128 130.852 0.462879C130.919 0.395879 130.994 0.362379 131.078 0.362379ZM147.229 5.56322C147.229 4.77597 147.388 4.04735 147.706 3.37736C148.041 2.70736 148.485 2.12949 149.038 1.64374C149.607 1.158 150.261 0.772752 150.998 0.488003C151.751 0.203255 152.547 0.0608809 153.385 0.0608809C154.691 0.0608809 155.822 0.295379 156.776 0.764376C157.748 1.21662 158.476 1.74424 158.962 2.34724C159.079 2.49799 159.071 2.63199 158.937 2.74924L157.204 4.55822C157.137 4.62522 157.053 4.65872 156.952 4.65872C156.869 4.65872 156.793 4.61685 156.726 4.5331C156.575 4.3656 156.383 4.1981 156.148 4.0306C155.931 3.8631 155.671 3.71235 155.369 3.57836C155.085 3.42761 154.775 3.31036 154.44 3.22661C154.105 3.14286 153.761 3.10098 153.41 3.10098C152.991 3.10098 152.606 3.16798 152.254 3.30198C151.919 3.41923 151.634 3.57836 151.4 3.77935C151.165 3.98035 150.981 4.21485 150.847 4.48285C150.713 4.75085 150.646 5.0356 150.646 5.33709C150.646 5.82284 150.805 6.24159 151.123 6.59333C151.442 6.94508 151.919 7.18795 152.555 7.32195L155.018 7.79932C155.822 7.95007 156.525 8.19295 157.128 8.52794C157.748 8.84619 158.259 9.23144 158.661 9.68369C159.079 10.1359 159.398 10.6468 159.615 11.2163C159.833 11.769 159.942 12.3553 159.942 12.975C159.942 13.645 159.8 14.3067 159.515 14.9599C159.247 15.6131 158.837 16.1994 158.284 16.7186C157.748 17.2379 157.086 17.6566 156.299 17.9749C155.512 18.2764 154.607 18.4271 153.586 18.4271C152.865 18.4271 152.187 18.3517 151.55 18.201C150.931 18.0502 150.361 17.8576 149.842 17.6231C149.339 17.3719 148.896 17.1039 148.51 16.8191C148.125 16.5176 147.807 16.2245 147.556 15.9398C147.438 15.8225 147.438 15.6885 147.556 15.5378L149.138 13.5027C149.189 13.4189 149.256 13.377 149.339 13.377C149.44 13.3603 149.524 13.3854 149.591 13.4524C149.825 13.6702 150.085 13.8963 150.37 14.1308C150.654 14.3485 150.964 14.5495 151.299 14.7338C151.634 14.918 151.994 15.0688 152.38 15.186C152.765 15.3033 153.175 15.3619 153.611 15.3619C154.532 15.3619 155.235 15.1609 155.721 14.7589C156.207 14.3569 156.45 13.8377 156.45 13.2012C156.45 12.6987 156.266 12.2632 155.897 11.8947C155.545 11.5094 155.018 11.2498 154.314 11.1158L151.852 10.6133C150.445 10.3286 149.323 9.75069 148.485 8.87969C147.648 8.0087 147.229 6.90321 147.229 5.56322Z" fill="white"/>
</svg>
