<svg width="94" height="19" viewBox="0 0 94 19" fill="none" xmlns="http://www.w3.org/2000/svg">
<path d="M1.13561 0.412628H3.52247C3.85746 0.412628 4.13384 0.546628 4.35159 0.814626L13.3965 12.573V0.714127C13.3965 0.513128 13.497 0.412628 13.698 0.412628H16.0849C16.4199 0.412628 16.6962 0.546628 16.914 0.814626L29.8282 17.6483C29.8951 17.732 29.9035 17.8158 29.8533 17.8995C29.8198 17.9665 29.7528 18 29.6523 18H26.4614C26.1264 18 25.8501 17.866 25.6323 17.598L16.5874 5.83959V17.6985C16.5874 17.8995 16.4869 18 16.2859 18H13.899C13.564 18 13.2876 17.866 13.0699 17.598L4.05009 5.83959V17.6985C4.05009 17.8995 3.94121 18 3.72347 18H1.13561C1.05186 18 0.976486 17.9749 0.909486 17.9246C0.859236 17.8576 0.834112 17.7823 0.834112 17.6985V0.714127C0.834112 0.630377 0.859236 0.563378 0.909486 0.513128C0.976486 0.446128 1.05186 0.412628 1.13561 0.412628ZM29.8437 9.13094C29.8437 7.8412 30.0782 6.64358 30.5471 5.53809C31.0329 4.41585 31.6778 3.45273 32.4818 2.64874C33.3025 1.82799 34.2656 1.1915 35.3711 0.739251C36.4766 0.270255 37.6658 0.0441313 38.9388 0.0608809C40.2118 0.0776306 41.4011 0.328879 42.5066 0.814626C43.6121 1.30037 44.5668 1.96199 45.3708 2.79949C46.1915 3.63698 46.8364 4.61685 47.3054 5.73909C47.7744 6.84458 48.0005 8.02545 47.9838 9.28169C47.967 10.5547 47.7158 11.7439 47.23 12.8494C46.7443 13.9549 46.0827 14.918 45.2452 15.7388C44.4244 16.5595 43.4613 17.2044 42.3558 17.6734C41.2503 18.1256 40.0611 18.3517 38.7881 18.3517C37.5318 18.3517 36.351 18.1172 35.2455 17.6483C34.1567 17.1625 33.2104 16.5093 32.4064 15.6885C31.6024 14.851 30.9743 13.8712 30.522 12.7489C30.0698 11.6267 29.8437 10.4207 29.8437 9.13094ZM33.0596 9.25656C33.0596 10.0773 33.2188 10.8562 33.537 11.5932C33.8552 12.3302 34.2824 12.975 34.8184 13.5278C35.3544 14.0805 35.9741 14.516 36.6776 14.8343C37.3811 15.1525 38.1348 15.3116 38.9388 15.3116C39.7261 15.2949 40.4715 15.119 41.1749 14.784C41.8784 14.449 42.4898 14.0052 43.0091 13.4524C43.5451 12.8829 43.9638 12.2297 44.2653 11.4927C44.5668 10.7389 44.7092 9.95168 44.6924 9.13094C44.6924 8.3102 44.5333 7.53133 44.215 6.79433C43.8968 6.05734 43.4697 5.42084 42.9337 4.88485C42.3977 4.3321 41.7696 3.8966 41.0493 3.57836C40.3458 3.26011 39.6005 3.10098 38.8132 3.10098C38.026 3.11773 37.2806 3.29361 36.5771 3.62861C35.8736 3.94685 35.2622 4.39072 34.743 4.96022C34.2237 5.51297 33.8134 6.15784 33.5119 6.89483C33.2104 7.63183 33.0596 8.41907 33.0596 9.25656ZM50.8629 0.714127C50.8629 0.630377 50.888 0.563378 50.9383 0.513128C51.0053 0.446128 51.0807 0.412628 51.1644 0.412628H56.7673C57.9732 0.412628 59.1039 0.638752 60.1591 1.091C61.2143 1.54325 62.1356 2.16299 62.9228 2.95023C63.7101 3.72073 64.3382 4.6336 64.8072 5.68884C65.2929 6.72733 65.5442 7.8412 65.5609 9.03044C65.5944 10.2699 65.3683 11.434 64.8826 12.5228C64.4136 13.6115 63.7687 14.5663 62.948 15.387C62.1272 16.191 61.1641 16.8275 60.0586 17.2965C58.9699 17.7655 57.8057 18 56.5663 18H51.1644C51.0807 18 51.0053 17.9749 50.9383 17.9246C50.888 17.8576 50.8629 17.7823 50.8629 17.6985V0.714127ZM54.0789 14.8091H56.7673C57.5377 14.8091 58.258 14.6668 58.928 14.382C59.6147 14.0805 60.2094 13.6785 60.7118 13.176C61.2311 12.6568 61.6331 12.0622 61.9178 11.3922C62.2193 10.7054 62.3701 9.97681 62.3701 9.20631C62.3701 8.43582 62.2193 7.71558 61.9178 7.04558C61.6331 6.35884 61.2311 5.76421 60.7118 5.26172C60.2094 4.74247 59.6147 4.34047 58.928 4.05573C58.258 3.75423 57.5377 3.60348 56.7673 3.60348H54.0789V14.8091ZM68.4797 0.714127C68.4797 0.630377 68.5049 0.563378 68.5551 0.513128C68.6221 0.446128 68.6975 0.412628 68.7812 0.412628H79.6352C79.8362 0.412628 79.9367 0.513128 79.9367 0.714127V3.30198C79.9367 3.50298 79.8362 3.60348 79.6352 3.60348H71.6957V7.62345H77.9769C78.1779 7.62345 78.2784 7.72395 78.2784 7.92495V10.4877C78.2784 10.7054 78.1779 10.8143 77.9769 10.8143H71.6957V14.8091H80.414C80.5145 14.8091 80.5815 14.851 80.615 14.9348C80.6653 15.0185 80.6569 15.0939 80.5899 15.1609L78.7307 17.598C78.5129 17.866 78.2365 18 77.9015 18H68.7812C68.6975 18 68.6221 17.9749 68.5551 17.9246C68.5049 17.8576 68.4797 17.7823 68.4797 17.6985V0.714127ZM83.3311 0.412628H85.9189C86.1367 0.412628 86.2455 0.513128 86.2455 0.714127V14.8091H93.2805C93.381 14.8091 93.448 14.851 93.4815 14.9348C93.5317 15.0185 93.5317 15.0939 93.4815 15.1609L91.5971 17.598C91.3794 17.866 91.1114 18 90.7931 18H83.3311C83.2473 18 83.1719 17.9749 83.1049 17.9246C83.0547 17.8576 83.0296 17.7823 83.0296 17.6985V0.714127C83.0296 0.630377 83.0547 0.563378 83.1049 0.513128C83.1719 0.446128 83.2473 0.412628 83.3311 0.412628Z" fill="white"/>
</svg>
