<svg width="51" height="60" viewBox="0 0 51 60" fill="none" xmlns="http://www.w3.org/2000/svg">
<path fill-rule="evenodd" clip-rule="evenodd" d="M33.0404 29.8876L33.3338 30.2099L22.5371 42.0702L22 41.4802L32.5528 29.8876L22 18.2951L22.5371 17.7051L33.3337 29.5654L33.0404 29.8876Z" fill="#111111"/>
<path d="M33.3338 30.2099L33.9238 30.7471L34.4128 30.2099L33.9238 29.6728L33.3338 30.2099ZM33.0404 29.8876L32.4503 29.3505L31.9613 29.8876L32.4503 30.4248L33.0404 29.8876ZM22.5371 42.0702L21.9471 42.6074L22.5371 43.2556L23.1272 42.6074L22.5371 42.0702ZM22 41.4802L21.4099 40.943L20.921 41.4802L21.4099 42.0173L22 41.4802ZM32.5528 29.8876L33.1429 30.4248L33.6319 29.8876L33.1429 29.3505L32.5528 29.8876ZM22 18.2951L21.4099 17.758L20.921 18.2951L21.4099 18.8323L22 18.2951ZM22.5371 17.7051L23.1272 17.1679L22.5371 16.5197L21.9471 17.1679L22.5371 17.7051ZM33.3337 29.5654L33.9238 30.1025L34.4128 29.5654L33.9238 29.0282L33.3337 29.5654ZM33.9238 29.6728L33.6304 29.3505L32.4503 30.4248L32.7437 30.7471L33.9238 29.6728ZM23.1272 42.6074L33.9238 30.7471L32.7437 29.6728L21.9471 41.5331L23.1272 42.6074ZM21.4099 42.0173L21.9471 42.6074L23.1272 41.5331L22.5901 40.943L21.4099 42.0173ZM31.9628 29.3505L21.4099 40.943L22.5901 42.0173L33.1429 30.4248L31.9628 29.3505ZM33.1429 29.3505L22.5901 17.758L21.4099 18.8323L31.9628 30.4248L33.1429 29.3505ZM22.5901 18.8323L23.1272 18.2422L21.9471 17.1679L21.4099 17.758L22.5901 18.8323ZM21.9471 18.2422L32.7437 30.1025L33.9238 29.0282L23.1272 17.1679L21.9471 18.2422ZM32.7437 29.0282L32.4503 29.3505L33.6304 30.4248L33.9238 30.1025L32.7437 29.0282Z" fill="#111111"/>
<path d="M25.3871 2L1 16V44.5L25.3871 58L50 44.5V16L25.3871 2Z" stroke="#111111" stroke-width="2"/>
</svg>
