<svg width="81" height="19" viewBox="0 0 81 19" fill="none" xmlns="http://www.w3.org/2000/svg">
<path d="M0.35674 5.56322C0.35674 4.77597 0.515864 4.04735 0.834112 3.37736C1.16911 2.70736 1.61298 2.12949 2.16573 1.64374C2.73522 1.158 3.38847 0.772752 4.12546 0.488003C4.87921 0.203255 5.67483 0.0608809 6.51232 0.0608809C7.81881 0.0608809 8.94943 0.295379 9.90417 0.764376C10.8757 1.21662 11.6043 1.74424 12.09 2.34724C12.2073 2.49799 12.1989 2.63199 12.0649 2.74924L10.3313 4.55822C10.2643 4.62522 10.1805 4.65872 10.08 4.65872C9.99629 4.65872 9.92092 4.61685 9.85392 4.5331C9.70317 4.3656 9.51055 4.1981 9.27605 4.0306C9.0583 3.8631 8.79868 3.71235 8.49718 3.57836C8.21243 3.42761 7.90256 3.31036 7.56756 3.22661C7.23256 3.14286 6.88919 3.10098 6.53744 3.10098C6.1187 3.10098 5.73345 3.16798 5.3817 3.30198C5.04671 3.41923 4.76196 3.57836 4.52746 3.77935C4.29296 3.98035 4.10871 4.21485 3.97471 4.48285C3.84071 4.75085 3.77372 5.0356 3.77372 5.33709C3.77372 5.82284 3.93284 6.24159 4.25109 6.59333C4.56933 6.94508 5.04671 7.18795 5.6832 7.32195L8.14543 7.79932C8.94943 7.95007 9.65292 8.19295 10.2559 8.52794C10.8757 8.84619 11.3865 9.23144 11.7885 9.68369C12.2073 10.1359 12.5255 10.6468 12.7433 11.2163C12.961 11.769 13.0699 12.3553 13.0699 12.975C13.0699 13.645 12.9275 14.3067 12.6428 14.9599C12.3748 15.6131 11.9644 16.1994 11.4117 16.7186C10.8757 17.2379 10.214 17.6566 9.4268 17.9749C8.63955 18.2764 7.73506 18.4271 6.71332 18.4271C5.99307 18.4271 5.3147 18.3517 4.67821 18.201C4.05846 18.0502 3.48897 17.8576 2.96972 17.6231C2.46722 17.3719 2.02335 17.1039 1.63811 16.8191C1.25286 16.5176 0.934611 16.2245 0.683363 15.9398C0.566114 15.8225 0.566114 15.6885 0.683363 15.5378L2.26623 13.5027C2.31648 13.4189 2.38348 13.377 2.46722 13.377C2.56772 13.3603 2.65147 13.3854 2.71847 13.4524C2.95297 13.6702 3.21259 13.8963 3.49734 14.1308C3.78209 14.3485 4.09196 14.5495 4.42696 14.7338C4.76196 14.918 5.12208 15.0688 5.50733 15.186C5.89257 15.3033 6.30295 15.3619 6.73844 15.3619C7.65969 15.3619 8.36318 15.1609 8.84893 14.7589C9.33467 14.3569 9.57755 13.8377 9.57755 13.2012C9.57755 12.6987 9.3933 12.2632 9.0248 11.8947C8.67305 11.5094 8.14543 11.2498 7.44194 11.1158L4.97971 10.6133C3.57272 10.3286 2.45047 9.75069 1.61298 8.87969C0.775487 8.0087 0.35674 6.90321 0.35674 5.56322ZM14.7499 0.663876C14.7499 0.580127 14.775 0.513128 14.8253 0.462879C14.8923 0.395879 14.9677 0.362379 15.0514 0.362379H25.9556C26.2906 0.362379 26.567 0.496378 26.7847 0.764376L28.6439 3.20148C28.7109 3.28523 28.7193 3.36898 28.6691 3.45273C28.6356 3.51973 28.5686 3.55323 28.4681 3.55323H22.8652V17.6483C22.8652 17.8493 22.7647 17.9498 22.5637 17.9498H19.9759C19.7749 17.9498 19.6744 17.8493 19.6744 17.6483V3.55323H15.0514C14.9677 3.55323 14.8923 3.52811 14.8253 3.47786C14.775 3.41086 14.7499 3.33548 14.7499 3.25173V0.663876ZM29.9418 9.13094C29.9418 7.8412 30.1763 6.64358 30.6453 5.53809C31.131 4.41585 31.7759 3.45273 32.5799 2.64874C33.4006 1.82799 34.3638 1.1915 35.4693 0.739251C36.5748 0.270255 37.764 0.0441313 39.037 0.0608809C40.31 0.0776306 41.4992 0.328879 42.6047 0.814626C43.7102 1.30037 44.6649 1.96199 45.4689 2.79949C46.2897 3.63698 46.9345 4.61685 47.4035 5.73909C47.8725 6.84458 48.0987 8.02545 48.0819 9.28169C48.0652 10.5547 47.8139 11.7439 47.3282 12.8494C46.8424 13.9549 46.1808 14.918 45.3433 15.7388C44.5226 16.5595 43.5594 17.2044 42.454 17.6734C41.3485 18.1256 40.1592 18.3517 38.8862 18.3517C37.63 18.3517 36.4491 18.1172 35.3436 17.6483C34.2549 17.1625 33.3085 16.5093 32.5045 15.6885C31.7005 14.851 31.0724 13.8712 30.6202 12.7489C30.1679 11.6267 29.9418 10.4207 29.9418 9.13094ZM33.1578 9.25656C33.1578 10.0773 33.3169 10.8562 33.6351 11.5932C33.9534 12.3302 34.3805 12.975 34.9165 13.5278C35.4525 14.0805 36.0723 14.516 36.7757 14.8343C37.4792 15.1525 38.233 15.3116 39.037 15.3116C39.8242 15.2949 40.5696 15.119 41.2731 14.784C41.9766 14.449 42.588 14.0052 43.1072 13.4524C43.6432 12.8829 44.0619 12.2297 44.3634 11.4927C44.6649 10.7389 44.8073 9.95168 44.7906 9.13094C44.7906 8.3102 44.6314 7.53133 44.3132 6.79433C43.9949 6.05734 43.5678 5.42084 43.0318 4.88485C42.4958 4.3321 41.8677 3.8966 41.1475 3.57836C40.444 3.26011 39.6986 3.10098 38.9114 3.10098C38.1241 3.11773 37.3787 3.29361 36.6752 3.62861C35.9718 3.94685 35.3604 4.39072 34.8411 4.96022C34.3219 5.51297 33.9115 6.15784 33.61 6.89483C33.3085 7.63183 33.1578 8.41907 33.1578 9.25656ZM50.9611 0.663876C50.9611 0.580127 50.9862 0.513128 51.0364 0.462879C51.1034 0.395879 51.1788 0.362379 51.2626 0.362379H64.5285C64.6122 0.362379 64.6792 0.395879 64.7295 0.462879C64.7965 0.513128 64.83 0.580127 64.83 0.663876V4.35722C64.83 4.59172 64.7546 4.8011 64.6038 4.98535L60.6341 10.1862L66.3123 17.598C66.3626 17.6818 66.3626 17.7655 66.3123 17.8493C66.2788 17.9163 66.2202 17.9498 66.1365 17.9498H62.9456C62.6106 17.9498 62.3342 17.8158 62.1165 17.5478L56.6141 10.3872C56.4969 10.2532 56.4969 10.1276 56.6141 10.0103L61.5637 3.55323H54.177V17.6483C54.177 17.8493 54.0682 17.9498 53.8504 17.9498H51.2626C51.1788 17.9498 51.1034 17.9246 51.0364 17.8744C50.9862 17.8074 50.9611 17.732 50.9611 17.6483V0.663876ZM68.3816 0.714127C68.3816 0.630377 68.4067 0.563378 68.457 0.513128C68.524 0.446128 68.5993 0.412628 68.6831 0.412628H79.537C79.738 0.412628 79.8385 0.513128 79.8385 0.714127V3.30198C79.8385 3.50298 79.738 3.60348 79.537 3.60348H71.5976V7.62345H77.8788C78.0798 7.62345 78.1803 7.72395 78.1803 7.92495V10.4877C78.1803 10.7054 78.0798 10.8143 77.8788 10.8143H71.5976V14.8091H80.3159C80.4164 14.8091 80.4834 14.851 80.5169 14.9348C80.5671 15.0185 80.5587 15.0939 80.4918 15.1609L78.6325 17.598C78.4148 17.866 78.1384 18 77.8034 18H68.6831C68.5993 18 68.524 17.9749 68.457 17.9246C68.4067 17.8576 68.3816 17.7823 68.3816 17.6985V0.714127Z" fill="white"/>
</svg>
